<svg xmlns="http://www.w3.org/2000/svg" viewBox="0 0 512 512">
   <g>
      <rect width="512" height="512" rx="50" ry="50" fill="#6C37E2" />
      <path
         d="M241.5,427.87c-13.7,0-24.22-3.67-31.55-11-7.33-7.33-11-18.01-11-32.03v-133.85h-12.42c-10.2,0-18.09-2.71-23.66-8.13-5.58-5.42-8.36-13.23-8.37-23.43,0-10.2,2.79-17.93,8.37-23.19,5.58-5.26,13.47-7.89,23.66-7.89h36.81l-24.38,22.47v-13.38c0-35.38,8.84-61.91,26.53-79.6,17.69-17.69,44.06-28.29,79.12-31.79l13.87-1.43c10.2-1.27,18.33-.08,24.38,3.59,6.05,3.66,10.2,8.45,12.43,14.34,2.23,5.87,2.81,12.23,1.67,18.41-.94,5.99-3.5,11.61-7.41,16.25-3.88,4.49-9.38,7.24-15.3,7.65l-6.69.48c-16.25,1.28-27.56,4.78-33.94,10.52-6.38,5.74-9.56,14.18-9.56,25.34v15.78l-10.52-8.61h37.77c10.52,0,18.48,2.63,23.9,7.89,5.42,5.26,8.12,12.99,8.13,23.19,0,10.2-2.71,18.01-8.13,23.43s-13.38,8.13-23.9,8.13h-27.25v133.86c0,28.68-14.18,43.03-42.55,43.03Z"
         fill="#fff"
      />
   </g>
</svg>
