<svg xmlns="http://www.w3.org/2000/svg" xmlns:xlink="http://www.w3.org/1999/xlink" width="512" height="512" viewBox="0 0 512 512"><defs><clipPath id="b"><rect width="512" height="512"/></clipPath></defs><g id="a" clip-path="url(#b)"><rect width="512" height="512" fill="#fff"/><rect width="512" height="512" rx="50" fill="#6c37e2"/><path d="M87.027,329.542q-20.557,0-31.552-11t-11-32.03V152.659H32.05q-15.3,0-23.664-8.127T.02,121.106q0-15.3,8.366-23.186T32.05,90.032H68.861L44.48,112.5V99.116q0-53.065,26.532-79.6t79.119-31.791L164-13.707q15.3-1.912,24.381,3.585T200.806,4.22a34.356,34.356,0,0,1,1.673,18.405,33.236,33.236,0,0,1-7.41,16.254,22.222,22.222,0,0,1-15.3,7.649l-6.693.478Q148.7,48.919,139.136,57.524t-9.561,25.337V98.637l-10.517-8.605h37.767q15.776,0,23.9,7.888t8.127,23.186q0,15.3-8.127,23.425t-23.9,8.127h-27.25V286.516Q129.575,329.542,87.027,329.542Z" transform="translate(154.471 98.33)" fill="#fff"/></g></svg>